<?xml version="1.0" encoding="UTF-8" standalone="no"?>
<svg
   xmlns:dc="http://purl.org/dc/elements/1.1/"
   xmlns:cc="http://creativecommons.org/ns#"
   xmlns:rdf="http://www.w3.org/1999/02/22-rdf-syntax-ns#"
   xmlns:svg="http://www.w3.org/2000/svg"
   xmlns="http://www.w3.org/2000/svg"
   xmlns:sodipodi="http://sodipodi.sourceforge.net/DTD/sodipodi-0.dtd"
   xmlns:inkscape="http://www.inkscape.org/namespaces/inkscape"
   version="1.1"
   x="0px"
   y="0px"
   viewBox="0 0 90 90"
   xml:space="preserve"
   id="svg4515"
   sodipodi:docname="pause.svg"
   width="90"
   height="90"
   inkscape:version="0.92.1 r15371"><metadata
     id="metadata4521"><rdf:RDF><cc:Work
         rdf:about=""><dc:format>image/svg+xml</dc:format><dc:type
           rdf:resource="http://purl.org/dc/dcmitype/StillImage" /><dc:title></dc:title></cc:Work></rdf:RDF></metadata><defs
     id="defs4519" /><sodipodi:namedview
     pagecolor="#ffffff"
     bordercolor="#666666"
     borderopacity="1"
     objecttolerance="10"
     gridtolerance="10"
     guidetolerance="10"
     inkscape:pageopacity="0"
     inkscape:pageshadow="2"
     inkscape:window-width="1366"
     inkscape:window-height="705"
     id="namedview4517"
     showgrid="false"
     fit-margin-top="0"
     fit-margin-left="0"
     fit-margin-right="0"
     fit-margin-bottom="0"
     inkscape:zoom="4.288"
     inkscape:cx="45"
     inkscape:cy="32.5"
     inkscape:window-x="-8"
     inkscape:window-y="-8"
     inkscape:window-maximized="1"
     inkscape:current-layer="svg4515" /><path
     d="M 45,0 C 20.2,0 0,20.1 0,45 0,69.8 20.2,90 45,90 69.8,90 90,69.8 90,45 90,20.1 69.8,0 45,0 Z m -5,62 c 0,2.2 -1.8,4 -4,4 h -4 c -2.2,0 -4,-1.8 -4,-4 V 28 c 0,-2.2 1.8,-4 4,-4 h 4 c 2.2,0 4,1.8 4,4 z m 22,0 c 0,2.2 -1.8,4 -4,4 h -4 c -2.2,0 -4,-1.8 -4,-4 V 28 c 0,-2.2 1.8,-4 4,-4 h 4 c 2.2,0 4,1.8 4,4 z"
     id="path4509"
     inkscape:connector-curvature="0" /></svg>