<?xml version="1.0" encoding="iso-8859-1"?>
<!-- Generator: Adobe Illustrator 19.0.0, SVG Export Plug-In . SVG Version: 6.00 Build 0)  -->
<svg version="1.1" id="Layer_1" xmlns="http://www.w3.org/2000/svg" xmlns:xlink="http://www.w3.org/1999/xlink" x="0px" y="0px"
	 viewBox="0 0 512 512" style="enable-background:new 0 0 512 512;" xml:space="preserve">
<g>
	<g>
		<path d="M256,0C114.615,0,0,114.615,0,256s114.615,256,256,256s256-114.615,256-256S397.385,0,256,0z M256,494.933
			C124.041,494.933,17.067,387.959,17.067,256S124.041,17.067,256,17.067S494.933,124.041,494.933,256S387.959,494.933,256,494.933z
			"/>
	</g>
</g>
<g>
	<g>
		<path d="M204.8,128h-25.6c-14.138,0-25.6,11.461-25.6,25.6v204.8c0,14.138,11.461,25.6,25.6,25.6h25.6
			c14.138,0,25.6-11.461,25.6-25.6V153.6C230.4,139.461,218.938,128,204.8,128z M213.333,358.4c0,4.713-3.821,8.533-8.533,8.533
			h-25.6c-4.713,0-8.533-3.82-8.533-8.533V153.6c0-4.713,3.82-8.533,8.533-8.533h25.6c4.713,0,8.533,3.821,8.533,8.533V358.4z"/>
	</g>
</g>
<g>
	<g>
		<path d="M332.8,128h-25.6c-14.138,0-25.6,11.461-25.6,25.6v204.8c0,14.138,11.461,25.6,25.6,25.6h25.6
			c14.138,0,25.6-11.461,25.6-25.6V153.6C358.4,139.461,346.938,128,332.8,128z M341.333,358.4c0,4.713-3.821,8.533-8.533,8.533
			h-25.6c-4.713,0-8.533-3.82-8.533-8.533V153.6c0-4.713,3.82-8.533,8.533-8.533h25.6c4.713,0,8.533,3.821,8.533,8.533V358.4z"/>
	</g>
</g>
<g>
</g>
<g>
</g>
<g>
</g>
<g>
</g>
<g>
</g>
<g>
</g>
<g>
</g>
<g>
</g>
<g>
</g>
<g>
</g>
<g>
</g>
<g>
</g>
<g>
</g>
<g>
</g>
<g>
</g>
</svg>
